<?xml version="1.0" encoding="UTF-8" standalone="no"?><!DOCTYPE svg PUBLIC "-//W3C//DTD SVG 1.1//EN" "http://www.w3.org/Graphics/SVG/1.1/DTD/svg11.dtd"><svg width="100%" height="100%" viewBox="0 0 894 1081" version="1.1" xmlns="http://www.w3.org/2000/svg" xmlns:xlink="http://www.w3.org/1999/xlink" xml:space="preserve" xmlns:serif="http://www.serif.com/" style="fill-rule:evenodd;clip-rule:evenodd;stroke-linejoin:round;stroke-miterlimit:2;"><g><path d="M893.96,482.88l-15.66,168.18l-209.02,-133.46l224.68,-34.72Z" style="fill:#5c6db2;fill-rule:nonzero;"/><path d="M893.96,482.88l-224.68,34.72l-62.64,-55.82l287.32,21.1Z" style="fill:#6fa3d3;fill-rule:nonzero;"/><path d="M830.98,229.78l54.12,159.82l-320.16,-37.78l266.04,-122.04Z" style="fill:#5d83c1;fill-rule:nonzero;"/><path d="M885.1,389.6l-618.22,21.12l298.06,-58.9l320.16,37.78Z" style="fill:#49519c;fill-rule:nonzero;"/><path d="M878.3,651.06l-384.68,-133.46l175.66,0l209.02,133.46Z" style="fill:#4f6597;fill-rule:nonzero;"/><path d="M830.98,229.78l-266.04,122.04l15.82,-41.88l250.22,-80.16Z" style="fill:#68b6dd;fill-rule:nonzero;"/><path d="M761.02,122.54l-501.96,259.92l212.42,-161.36l289.54,-98.56Z" style="fill:#465e9e;fill-rule:nonzero;"/><path d="M761.02,122.54l-289.54,98.56l155.76,-221.1l133.78,122.54Z" style="fill:#61a0d6;fill-rule:nonzero;"/><path d="M669.28,517.6l-175.66,0l-226.74,-81.02l402.4,81.02Z" style="fill:#554d98;fill-rule:nonzero;"/><path d="M669.28,517.6l-402.4,-81.02l339.76,25.2l62.64,55.82Z" style="fill:#838bc9;fill-rule:nonzero;"/><path d="M627.24,0l-155.76,221.1l-56.68,0l212.44,-221.1Z" style="fill:#8da4d8;fill-rule:nonzero;"/><path d="M580.76,309.94l-15.82,41.88l-298.06,58.9l313.88,-100.78Z" style="fill:#8a9ed1;fill-rule:nonzero;"/><path d="M471.48,221.1l-212.42,161.36l155.74,-161.36l56.68,-0Z" style="fill:#8c95ce;fill-rule:nonzero;"/></g><g><path d="M128.34,195.22l-54.82,109.28l-67.22,7.84l122.04,-117.12Z" style="fill:#d0e394;fill-rule:nonzero;"/><path d="M128.34,351.74l-98.22,-0.08l43.4,-47.16l54.82,47.24Z" style="fill:#5b934c;fill-rule:nonzero;"/><path d="M128.6,468.5l1.02,60.68l-90.82,0l89.8,-60.68Z" style="fill:#58ac71;fill-rule:nonzero;"/><path d="M128.6,468.5l-89.8,60.68l-32,-60.68l121.8,0Z" style="fill:#c3d569;fill-rule:nonzero;"/><path d="M255.32,948.92l10.88,131.76l-33,-43.16l22.12,-88.6Z" style="fill:#19908c;fill-rule:nonzero;"/><path d="M227.66,351.82l-20.96,35.62l-9.04,-34.92l30,-0.7Z" style="fill:#235d5f;fill-rule:nonzero;"/><path d="M212.54,410.08l15.12,58.42l-30,0l14.88,-58.42Z" style="fill:#417c9c;fill-rule:nonzero;"/><path d="M129.62,529.18l0.12,20.08l-90.94,-20.08l90.82,-0Z" style="fill:#3c6441;fill-rule:nonzero;"/><path d="M50.38,386.12l8.82,-33.74l0.32,116.12l-15.4,-58.34l6.26,-24.04Z" style="fill:#5dac7d;fill-rule:nonzero;"/><path d="M12.94,842.38l242.38,106.54l-128.68,-50.72l-113.7,-55.82Z" style="fill:#518054;fill-rule:nonzero;"/><path d="M250.88,312.34l-66.5,-6.22l-56.04,-110.9l122.54,117.12Z" style="fill:#61b2ac;fill-rule:nonzero;"/><path d="M243.04,802.36l-114.42,-9.78l-0.02,0l1.78,-34.3l112.66,44.08Z" style="fill:#347e8b;fill-rule:nonzero;"/><path d="M6.8,468.5l32,60.68l-32,-3.92l0,-56.76Z" style="fill:#6fb64c;fill-rule:nonzero;"/><path d="M6.3,312.34l23.82,39.32l-17.78,-2.74l-6.04,-36.58Z" style="fill:#5e9e4a;fill-rule:nonzero;"/><path d="M12.94,842.38l29.32,120.92l-42.26,32.6l12.94,-153.52Z" style="fill:#eae781;fill-rule:nonzero;"/><path d="M128.6,688.84l0,33.62l-101.2,-45.2l101.2,11.58Z" style="fill:#7dc071;fill-rule:nonzero;"/><path d="M184.38,306.12l-56.04,45.62l-54.82,-47.24l110.86,1.62Z" style="fill:#2f927d;fill-rule:nonzero;"/><path d="M220.26,529.18l-40.18,55.16l-49.7,68.24l-0.64,-103.32l90.52,-20.08Z" style="fill:#3c996a;fill-rule:nonzero;"/><path d="M220.26,529.18l14.04,169.36l-54.22,-114.2l40.18,-55.16Z" style="fill:#2d8c7c;fill-rule:nonzero;"/><path d="M163.4,413.94l2.56,54.56l-37.36,0l34.8,-54.56Z" style="fill:#3d6b7b;fill-rule:nonzero;"/><path d="M180.08,584.34l54.22,114.2l-103.92,-45.96l49.7,-68.24Z" style="fill:#27978b;fill-rule:nonzero;"/><path d="M243.04,802.36l4.08,42.88l-118.5,-52.66l114.42,9.78Z" style="fill:#219f89;fill-rule:nonzero;"/><path d="M249.62,876.24l-119.82,-12.66l-0.44,-33.54l120.26,46.2Z" style="fill:#3eaea2;fill-rule:nonzero;"/><path d="M126.64,898.2l1.54,53.08l-1.54,-1l-126.64,45.62l42.26,-32.6l84.38,-65.1Z" style="fill:#74b652;fill-rule:nonzero;"/><path d="M126.64,898.2l-84.38,65.1l-29.32,-120.92l113.7,55.82Z" style="fill:#d9d45f;fill-rule:nonzero;"/><path d="M128.6,384.34l21.94,6.3l-41.86,-1.54l19.92,-4.76Z" style="fill:#3d6543;fill-rule:nonzero;"/><path d="M128.6,688.84l-101.2,-11.58l2.38,-39.48l98.82,51.06Z" style="fill:#cdd365;fill-rule:nonzero;"/><path d="M150.54,390.64l-21.94,21.82l-19.92,-23.36l41.86,1.54Z" style="fill:#4c8751;fill-rule:nonzero;"/><path d="M249.86,469.44l-29.6,59.74l-91.66,-60.68l37.36,0l31.7,0.36l52.2,0.58Z" style="fill:#439f9a;fill-rule:nonzero;"/><path d="M237.36,729.94l4.08,42.9l-112.84,-50.38l108.76,7.48Z" style="fill:#48a684;fill-rule:nonzero;"/><path d="M108.68,389.1l19.92,23.36l-34.64,0l14.72,-23.36Z" style="fill:#9fc54e;fill-rule:nonzero;"/><path d="M205.08,1000.78l-76.9,-49.5l-1.54,-53.08l78.44,102.58Z" style="fill:#3d8f67;fill-rule:nonzero;"/><path d="M129.36,830.04l-113.62,-17.12l2.56,-39.06l111.06,56.18Z" style="fill:#9dc45a;fill-rule:nonzero;"/><path d="M129.36,830.04l0.44,33.54l-114.06,-50.66l113.62,17.12Z" style="fill:#6bb852;fill-rule:nonzero;"/><path d="M237.36,729.94l-108.76,-41.1l-98.82,-51.06l207.58,92.16Z" style="fill:#15603f;fill-rule:nonzero;"/><path d="M163.4,413.94l-34.8,54.56l0,-56.04l34.8,1.48Z" style="fill:#279185;fill-rule:nonzero;"/><path d="M128.18,951.28l2.52,86.24l-130.7,-41.62l126.64,-45.62l1.54,1Z" style="fill:#71aa50;fill-rule:nonzero;"/><path d="M23.96,705.32l219.08,97.04l-112.66,-44.08l-106.42,-52.96Z" style="fill:#2c724e;fill-rule:nonzero;"/><path d="M150.54,390.64l12.86,23.3l-34.8,-1.48l21.94,-21.82Z" style="fill:#2a9289;fill-rule:nonzero;"/><path d="M227.78,351.82l-0.72,0l23.82,-39.48l-5.6,37.94l-17.5,1.54Z" style="fill:#365a6a;fill-rule:nonzero;"/><path d="M227.66,351.82l0,116.68l-15.12,-58.42l-5.84,-22.64l20.96,-35.62Z" style="fill:#228477;fill-rule:nonzero;"/><path d="M38.8,529.18l91.58,123.4l-98.22,-43.4l6.64,-80Z" style="fill:#c2c74f;fill-rule:nonzero;"/><path d="M249.62,876.24l-120.26,-46.2l-111.06,-56.18l231.32,102.38Z" style="fill:#608c4f;fill-rule:nonzero;"/><path d="M206.7,387.44l5.84,22.64l-14.88,58.42l0,-115.98l9.04,34.92Z" style="fill:#366c8e;fill-rule:nonzero;"/><path d="M73.52,304.5l54.82,-109.28l56.04,110.9l-110.86,-1.62Z" style="fill:#83cbb3;fill-rule:nonzero;"/><path d="M237.36,729.94l-108.76,-7.48l0,-33.62l108.76,41.1Z" style="fill:#279588;fill-rule:nonzero;"/><path d="M44.12,410.16l15.4,58.34l-30.64,0l15.24,-58.34Z" style="fill:#57ae79;fill-rule:nonzero;"/><path d="M249.86,469.44l0,56.34l-29.6,3.4l29.6,-59.74Z" style="fill:#3c626b;fill-rule:nonzero;"/><path d="M128.6,412.46l0,56.04l-34.64,-56.04l34.64,-0Z" style="fill:#95c557;fill-rule:nonzero;"/><path d="M130.38,758.28l-1.78,34.3l-5.84,-2.6l-101.18,-45.18l0.06,-1.06l108.74,14.54Z" style="fill:#83c27c;fill-rule:nonzero;"/><path d="M30.12,351.66l-23.82,-39.32l67.22,-7.84l-43.4,47.16Z" style="fill:#b3cd60;fill-rule:nonzero;"/><path d="M220.26,529.18l-90.52,20.08l-0.12,-20.08l90.64,-0Z" style="fill:#1c4935;fill-rule:nonzero;"/><path d="M249.62,876.24l3.56,42.14l-123.38,-54.8l119.82,12.66Z" style="fill:#29685d;fill-rule:nonzero;"/><path d="M30.12,351.66l20.26,34.46l-6.26,24.04l-15.24,58.34l1.24,-116.84Z" style="fill:#88c05d;fill-rule:nonzero;"/><path d="M250.88,312.34l-23.82,39.48l-42.68,-45.7l66.5,6.22Z" style="fill:#5a76a5;fill-rule:nonzero;"/><path d="M130.38,758.28l-108.74,-14.54l2.32,-38.42l106.42,52.96Z" style="fill:#71b453;fill-rule:nonzero;"/><path d="M93.96,412.46l34.64,56.04l-36.86,-0l2.22,-56.04Z" style="fill:#5fab7a;fill-rule:nonzero;"/><path d="M59.2,352.38l-8.82,33.74l-20.26,-34.46l29.08,0.72Z" style="fill:#648441;fill-rule:nonzero;"/><path d="M255.32,948.92l-22.12,88.6l-28.1,-36.74l-0.02,0l-78.44,-102.58l128.68,50.72Z" style="fill:#23928b;fill-rule:nonzero;"/><path d="M233.2,1037.52l33,43.16l-135.5,-43.16l-2.52,-86.24l76.9,49.5l0.02,0l28.1,36.74Z" style="fill:#338259;fill-rule:nonzero;"/><path d="M129.74,549.26l0.64,103.32l-91.58,-123.4l90.94,20.08Z" style="fill:#70ab73;fill-rule:nonzero;"/><path d="M220.26,529.18l-90.64,-0l-1.02,-60.68l91.66,60.68Z" style="fill:#1e9486;fill-rule:nonzero;"/><path d="M184.38,306.12l42.68,45.7l-98.72,-0.08l56.04,-45.62Z" style="fill:#609c52;fill-rule:nonzero;"/></g></svg>